<?xml version="1.0" encoding="UTF-8"?>
<svg version="1.1" xmlns="http://www.w3.org/2000/svg" width="1536" height="1024">
<path d="M0 0 C506.88 0 1013.76 0 1536 0 C1536 337.92 1536 675.84 1536 1024 C1029.12 1024 522.24 1024 0 1024 C0 686.08 0 348.16 0 0 Z " fill="#FDFDFD" transform="translate(0,0)"/>
<path d="M0 0 C1.21081749 -0.00256327 2.42163498 -0.00512655 3.66914392 -0.0077675 C6.99429683 -0.01182367 10.31890839 -0.00256716 13.64399529 0.01256669 C17.24299918 0.0256137 20.8419886 0.02113151 24.44100952 0.01885986 C30.66468955 0.01729256 36.88827468 0.02664463 43.11193085 0.04357338 C52.1100966 0.06803294 61.10821681 0.07577574 70.1064122 0.07953735 C84.70803205 0.08609096 99.30960139 0.10602243 113.91119385 0.13444519 C128.08892567 0.16201406 142.26664373 0.18323377 156.44439697 0.19596863 C157.31942099 0.1967568 158.19444501 0.19754497 159.09598491 0.19835702 C163.48605416 0.20227235 167.8761235 0.20606342 172.26619291 0.20979273 C208.6426872 0.24085466 245.01912408 0.29366064 281.39556885 0.36076355 C280.39560639 5.48335884 279.14854269 10.53934416 277.85650635 15.59513855 C276.83723281 19.77872397 276.20067995 23.85528701 275.8369751 28.14933777 C275.71044556 29.61824966 275.71044556 29.61824966 275.58135986 31.11683655 C275.52004883 31.85733246 275.45873779 32.59782837 275.39556885 33.36076355 C274.83575868 33.36174036 274.27594851 33.36271717 273.6991744 33.36372358 C240.51393299 33.42200648 207.32876662 33.49581148 174.14360759 33.58974983 C170.15825905 33.60101788 166.17291016 33.61215635 162.18756104 33.62321472 C160.99745347 33.62652025 160.99745347 33.62652025 159.78330332 33.62989255 C146.93972996 33.66525665 134.09615667 33.69012579 121.25255269 33.71111057 C108.07201047 33.73287969 94.89153139 33.76594068 81.71104288 33.80946511 C73.57918715 33.83596268 65.44741007 33.853672 57.31551331 33.86010959 C51.07801236 33.8659914 44.8406555 33.88759026 38.60321426 33.91503906 C36.04584621 33.92383586 33.4884548 33.92753849 30.93107224 33.92577171 C27.43917218 33.92412095 23.94781875 33.94080258 20.45599365 33.96203613 C19.44430414 33.95718856 18.43261462 33.95234098 17.39026785 33.94734651 C10.17420205 34.01974776 4.80169298 35.24139742 -1.41693115 39.11076355 C-6.05750279 43.88392295 -6.97743729 49.14284956 -7.1161499 55.6068573 C-7.1341011 56.26283401 -7.15205231 56.91881073 -7.17054749 57.59466553 C-7.22415268 59.66246867 -7.25838208 61.73004793 -7.29193115 63.79826355 C-7.32514859 65.21170586 -7.35964226 66.62511878 -7.39544678 68.03849792 C-7.47984735 71.47903801 -7.54689395 74.91965721 -7.60443115 78.36076355 C-8.61118896 78.30017761 -9.61794678 78.23959167 -10.6552124 78.1771698 C-12.83856722 78.04611073 -15.02199001 77.9172906 -17.20574951 77.7931366 C-21.36707504 77.55652809 -25.52511885 77.29903418 -29.68255615 77.00138855 C-31.34400496 76.89186898 -33.00546308 76.78249045 -34.66693115 76.67326355 C-35.43883789 76.61275818 -36.21074463 76.55225281 -37.00604248 76.48991394 C-43.42132993 76.08978197 -49.2181928 76.45177287 -54.41693115 80.61076355 C-58.80911162 86.13236185 -60.0557245 90.62840042 -59.85443115 97.61076355 C-59.84669678 98.66070496 -59.84669678 98.66070496 -59.83880615 99.7318573 C-59.78370313 103.5133022 -59.53204408 107.22431946 -59.1083374 110.9818573 C-58.65915717 115.16318497 -58.50214473 119.30061697 -58.4286499 123.5052948 C-58.39287842 125.38571472 -58.39287842 125.38571472 -58.35638428 127.30412292 C-58.31309305 129.90290857 -58.28202071 132.50192402 -58.26263428 135.10099792 C-58.23491943 136.34816589 -58.20720459 137.59533386 -58.1786499 138.8802948 C-58.16406738 140.00540466 -58.14948486 141.13051453 -58.13446045 142.28971863 C-57.48662367 146.04335234 -56.27252462 147.68081847 -53.60443115 150.36076355 C-51.7540141 151.54332852 -51.7540141 151.54332852 -49.85443115 152.17326355 C-48.78193115 152.56513855 -47.70943115 152.95701355 -46.60443115 153.36076355 C-46.54835693 155.04105652 -46.54835693 155.04105652 -46.4911499 156.7552948 C-46.42548858 158.22798445 -46.35904129 159.70063921 -46.29193115 161.17326355 C-46.26937256 161.91125183 -46.24681396 162.64924011 -46.22357178 163.40959167 C-46.02958323 167.59502759 -46.02958323 167.59502759 -44.3192749 171.33732605 C-40.86884189 173.3965822 -37.45848481 173.08724651 -33.60443115 172.36076355 C-26.99790446 169.38419658 -21.48664384 163.84618871 -16.12103271 159.05680847 C-13.16144636 156.45926071 -11.51820333 155.33920659 -7.60443115 154.36076355 C-7.60443115 166.24076355 -7.60443115 178.12076355 -7.60443115 190.36076355 C-10.17611084 190.6031073 -12.74779053 190.84545105 -15.3973999 191.09513855 C-45.30861361 193.91837685 -45.30861361 193.91837685 -74.60443115 200.36076355 C-74.10943115 207.78576355 -74.10943115 207.78576355 -73.60443115 215.36076355 C-70.94380615 214.24701355 -70.94380615 214.24701355 -68.22943115 213.11076355 C-58.05339541 209.21612064 -47.08788378 208.18329076 -36.35540771 206.73576355 C-34.21212167 206.44360102 -32.07319204 206.11941809 -29.9364624 205.78263855 C-25.53959326 205.22594234 -21.15558458 205.04101414 -16.72943115 204.86076355 C-15.02358404 204.79066024 -13.31784949 204.71776021 -11.61224365 204.64201355 C-10.8660376 204.61172058 -10.11983154 204.58142761 -9.35101318 204.55021667 C-7.05866036 204.39209527 -4.81810463 204.14279038 -2.53961182 203.85899353 C2.35293542 203.31190482 7.18571031 203.20606988 12.1050415 203.19963074 C13.03191772 203.19466583 13.95879395 203.18970093 14.91375732 203.18458557 C17.96238984 203.17006092 21.01096998 203.16317118 24.05963135 203.15763855 C25.11594128 203.15481117 26.17225121 203.1519838 27.26057053 203.14907074 C32.87246699 203.13410259 38.484338 203.12486339 44.09625244 203.12052917 C48.67315794 203.11617758 53.24987141 203.10241263 57.82672119 203.07951355 C139.82505219 202.67771577 139.82505219 202.67771577 152.1897583 214.00431824 C154.02127621 217.58354699 153.76350367 221.13951838 153.6885376 225.06388855 C153.68429276 225.90167847 153.68004791 226.73946838 153.67567444 227.60264587 C153.65891293 230.27234857 153.62126596 232.94128992 153.58306885 235.61076355 C153.56801872 237.42325263 153.55433088 239.23575357 153.54205322 241.04826355 C153.50901774 245.48605586 153.45725328 249.92328072 153.39556885 254.36076355 C157.35556885 254.36076355 161.31556885 254.36076355 165.39556885 254.36076355 C165.37462158 253.23581482 165.35367432 252.11086609 165.33209229 250.951828 C165.25955362 246.76803881 165.21371895 242.58430494 165.17584229 238.40007019 C165.15575832 236.59105575 165.12848544 234.78210598 165.09381104 232.97331238 C165.04514992 230.36922734 165.02256834 227.7660024 165.00494385 225.1615448 C164.98429871 224.35614761 164.96365356 223.55075043 164.94238281 222.72094727 C164.94082169 218.79177905 165.09360714 216.84159864 167.23248291 213.43571472 C170.28610762 210.50650971 172.69243977 209.12494975 176.7822876 208.3256073 C177.63886963 208.15609558 178.49545166 207.98658386 179.37799072 207.81193542 C180.2706665 207.64242371 181.16334229 207.47291199 182.08306885 207.29826355 C182.95640869 207.12488464 183.82974854 206.95150574 184.72955322 206.77287292 C193.34206614 205.09410827 201.8257883 204.18465047 210.58477783 203.81095886 C211.54542617 203.76899006 212.5060745 203.72702126 213.4958334 203.68378067 C223.45304293 203.27596826 233.40377089 203.17836836 243.3682251 203.15763855 C244.31686369 203.15481117 245.26550228 203.1519838 246.2428875 203.14907074 C251.27172985 203.13424664 256.3005448 203.12491408 261.32940674 203.12052917 C265.38841863 203.11616838 269.44721511 203.10234478 273.50616455 203.07951355 C360.49451004 202.60034003 360.49451004 202.60034003 392.39556885 215.36076355 C392.39556885 210.74076355 392.39556885 206.12076355 392.39556885 201.36076355 C379.35624005 196.22692824 379.35624005 196.22692824 356.39556885 193.36076355 C356.39556885 168.94076355 356.39556885 144.52076355 356.39556885 119.36076355 C366.79056885 118.86576355 366.79056885 118.86576355 377.39556885 118.36076355 C388.5305482 116.08500135 399.46575913 113.20418749 409.14556885 107.04826355 C417.65007178 102.63246395 427.69712359 106.98144129 436.2432251 109.5990448 C449.74637591 114.03324375 460.93185891 122.57666822 467.5557251 135.35295105 C475.51320856 154.37688826 467.69159855 183.3038927 463.95172119 202.74259949 C462.21522151 211.90589848 460.98919995 221.13026861 459.79034424 230.37736511 C459.03635157 236.10691781 458.19263245 241.72803999 456.85552979 247.35124207 C456.40168926 249.33402412 456.0446854 251.31017632 455.7197876 253.3177948 C453.79549468 264.96980164 451.66827494 275.96070648 441.99713135 283.7396698 C433.30748909 289.15438682 423.43355672 290.53383231 413.39556885 290.36076355 C413.4112793 291.01149841 413.42698975 291.66223328 413.44317627 292.33268738 C413.50551534 295.27945779 413.54455568 298.22608953 413.58306885 301.17326355 C413.62077393 302.70950378 413.62077393 302.70950378 413.65924072 304.27677917 C413.66890869 305.25968933 413.67857666 306.24259949 413.6885376 307.2552948 C413.71210327 308.61424866 413.71210327 308.61424866 413.73614502 310.00065613 C413.39556885 312.36076355 413.39556885 312.36076355 412.32427979 314.15275574 C409.34655714 316.01779012 406.72672134 315.76822406 403.2432251 315.7943573 C402.5466832 315.79959915 401.8501413 315.804841 401.13249207 315.8102417 C399.66070894 315.8166588 398.1888745 315.81532884 396.71710205 315.80680847 C394.46901728 315.79830496 392.22348019 315.82704676 389.97564697 315.85881042 C388.54400711 315.8604228 387.11236275 315.85984421 385.6807251 315.8568573 C384.3801416 315.85871033 383.07955811 315.86056335 381.73956299 315.86247253 C378.39556885 315.36076355 378.39556885 315.36076355 376.00274658 313.57975769 C371.16085785 306.89467085 373.39556885 298.25907969 373.39556885 290.36076355 C232.15556885 290.36076355 90.91556885 290.36076355 -54.60443115 290.36076355 C-54.60443115 297.29076355 -54.60443115 304.22076355 -54.60443115 311.36076355 C-59.06209842 315.81843082 -59.06209842 315.81843082 -64.03768921 315.86524963 C-65.08006241 315.84369308 -65.08006241 315.84369308 -66.14349365 315.82170105 C-66.86556 315.82078461 -67.58762634 315.81986816 -68.33157349 315.81892395 C-69.85293174 315.81289734 -71.37427865 315.7971793 -72.89544678 315.77238464 C-75.22857132 315.73577704 -77.56011134 315.73136606 -79.89349365 315.7318573 C-81.37267409 315.72202932 -82.85184376 315.71037371 -84.33099365 315.69670105 C-85.02995758 315.6944754 -85.72892151 315.69224976 -86.44906616 315.68995667 C-91.37223613 315.59295857 -91.37223613 315.59295857 -93.60443115 313.36076355 C-93.83148193 311.02238464 -93.83148193 311.02238464 -93.79974365 308.13420105 C-93.79329834 307.10295105 -93.78685303 306.07170105 -93.7802124 305.00920105 C-93.76345459 303.92896667 -93.74669678 302.8487323 -93.72943115 301.73576355 C-93.72040771 300.6477948 -93.71138428 299.55982605 -93.7020874 298.43888855 C-93.67846524 295.74596203 -93.64552671 293.053471 -93.60443115 290.36076355 C-94.64341553 290.3349823 -95.6823999 290.30920105 -96.75286865 290.28263855 C-105.03634103 289.9842784 -112.18162891 289.40956477 -119.60443115 285.36076355 C-120.24767334 285.02302917 -120.89091553 284.6852948 -121.5536499 284.33732605 C-130.06954021 279.12803957 -133.25904389 269.56175115 -135.60443115 260.36076355 C-136.53074398 255.57559864 -137.25967051 250.7667565 -137.97943115 245.94670105 C-138.19146161 244.56432055 -138.40420432 243.18204912 -138.61761475 241.79988098 C-139.17489641 238.18041945 -139.72416256 234.55979191 -140.2711792 230.93876648 C-141.14419118 225.16761365 -142.02882841 219.39823847 -142.91479492 213.62906265 C-143.21826128 211.64473928 -143.517626 209.65978996 -143.8168335 207.67481995 C-145.21209491 198.52565315 -146.86567246 189.44941424 -148.60443115 180.36076355 C-150.25591933 171.51175513 -150.82793453 162.98053644 -150.91693115 153.98576355 C-150.94339722 152.45145691 -150.94339722 152.45145691 -150.97039795 150.88615417 C-150.9602913 139.6475579 -147.02235408 131.40819752 -139.5536499 123.07170105 C-127.7114205 111.48820943 -112.00611935 105.58489989 -95.60443115 104.86076355 C-89.00205596 104.98673479 -79.51843859 106.44675611 -74.60443115 111.36076355 C-74.7127124 110.26634949 -74.7127124 110.26634949 -74.82318115 109.14982605 C-77.34164453 80.81711301 -76.00003609 49.13764593 -57.15130615 26.0834198 C-56.6408374 25.51494324 -56.13036865 24.94646667 -55.60443115 24.36076355 C-55.0114624 23.69947449 -54.41849365 23.03818542 -53.80755615 22.3568573 C-39.41359673 7.18562407 -20.72462404 -0.1633049 0 0 Z " fill="#289434" transform="translate(608.6044311523438,227.6392364501953)"/>
<path d="M0 0 C1.37494761 -0.00298657 1.37494761 -0.00298657 2.77767193 -0.00603348 C3.7912747 -0.00312064 4.80487747 -0.0002078 5.84919548 0.00279331 C6.92079505 0.00193889 7.99239462 0.00108446 9.0964669 0.00020415 C12.71098968 -0.00145165 16.32546672 0.00407236 19.93998528 0.00952244 C22.52152823 0.00980431 25.10307127 0.00964657 27.68461418 0.00907993 C33.25472938 0.00855482 38.82483289 0.01170027 44.39494514 0.01731777 C52.44845537 0.02543453 60.50195992 0.02804817 68.55547379 0.02930576 C81.62082197 0.031496 94.68616392 0.03815534 107.75150871 0.04760838 C120.44551881 0.05678321 133.13952722 0.0638637 145.83353996 0.06811619 C147.00664105 0.06851027 147.00664105 0.06851027 148.20344116 0.06891232 C152.12672655 0.07021733 156.05001195 0.07148104 159.97329736 0.07272422 C192.53625386 0.08309597 225.09920272 0.10071354 257.66215324 0.12304783 C257.95666374 0.93926609 257.95666374 0.93926609 258.25712395 1.77197361 C259.1592125 4.265375 260.06688529 6.75670881 260.97465324 9.24804783 C261.28338371 10.10398533 261.59211418 10.95992283 261.91020012 11.84179783 C263.58763424 16.43267017 265.4505012 20.7574328 267.66215324 25.12304783 C267.79130363 27.34814548 267.79130363 27.34814548 267.44730949 29.41211033 C267.32887688 30.18200291 267.21044426 30.95189548 267.08842278 31.74511814 C266.94775383 32.52983494 266.80708488 33.31455173 266.66215324 34.12304783 C266.47628654 35.27305271 266.47628654 35.27305271 266.28666496 36.44629002 C266.03331572 38.00299853 265.7730807 39.55860124 265.50614738 41.11303806 C262.63604434 54.19085157 262.63604434 54.19085157 265.03715324 66.81054783 C272.36292115 70.47343178 281.06278341 67.50948026 288.41215324 65.18554783 C304.14041282 60.36415389 304.14041282 60.36415389 310.03715324 63.37304783 C314.57148993 65.64690398 318.81757494 67.30633096 323.66215324 69.12304783 C323.66215324 93.87304783 323.66215324 118.62304783 323.66215324 144.12304783 C306.82415412 144.12304783 306.82415412 144.12304783 298.99711418 143.63134861 C288.76097386 143.0606349 278.55250598 142.97692066 268.30277824 142.99023533 C266.41587626 142.98955819 264.52897437 142.98858479 262.64207268 142.98733616 C258.71939563 142.98587698 254.79674163 142.98795457 250.87406731 142.99267673 C245.92135192 142.99835785 240.96869042 142.99499565 236.01597691 142.98924446 C211.27323485 142.9254471 211.27323485 142.9254471 186.54105949 143.54882908 C185.20793724 143.60301502 185.20793724 143.60301502 183.84788322 143.65829563 C170.96512149 144.29209978 155.03167537 145.20893756 144.18559074 152.87304783 C141.66215324 154.12304783 141.66215324 154.12304783 139.18559074 153.46289158 C138.35285637 153.02074314 137.52012199 152.5785947 136.66215324 152.12304783 C125.02802539 146.66617362 113.32893251 145.41281544 100.66215324 144.12304783 C99.94215141 144.04424885 99.22214958 143.96544987 98.48032951 143.88426304 C74.85225075 141.37407522 50.91079581 141.99303012 27.18260002 142.05438328 C21.91653501 142.06665452 16.65045761 142.07104475 11.38438225 142.07683659 C3.47694787 142.0863755 -4.43040816 142.10559639 -12.33784676 142.12304783 C-12.33784676 129.58304783 -12.33784676 117.04304783 -12.33784676 104.12304783 C-0.33784676 103.81054783 -0.33784676 103.81054783 3.39652824 103.73510838 C9.75213242 103.52363223 15.03875799 103.22230544 20.66215324 100.12304783 C25.07932856 94.20860036 25.25116003 89.19788976 25.19340324 81.96679783 C25.19723015 80.90569798 25.20105705 79.84459812 25.20499992 78.75134373 C25.20771279 76.51569764 25.20039564 74.28001947 25.18363762 72.04443455 C25.16222024 68.63371724 25.18346187 65.22510632 25.20902824 61.81445408 C25.20638486 59.63606404 25.20125966 57.4576753 25.19340324 55.27929783 C25.20150017 54.26557102 25.20959709 53.25184422 25.21793938 52.20739841 C25.13648057 46.01887106 24.5129193 42.06931888 20.66215324 37.12304783 C16.97567953 34.91755744 13.28791019 34.76122407 9.04887199 34.49023533 C7.17812004 34.36455173 7.17812004 34.36455173 5.26957512 34.23632908 C3.9760009 34.15769627 2.68242668 34.07906345 1.34965324 33.99804783 C0.03674309 33.91168064 -1.27616707 33.82531345 -2.62886238 33.73632908 C-5.86478809 33.52452303 -9.10101107 33.3203733 -12.33784676 33.12304783 C-12.51312992 29.10277124 -12.61903034 25.08348503 -12.71284676 21.06054783 C-12.76312019 19.92681736 -12.81339363 18.79308689 -12.86519051 17.62500095 C-13.03095836 8.14860504 -13.03095836 8.14860504 -9.43940926 3.87695408 C-6.33903343 0.82886353 -4.33183464 -0.00206869 0 0 Z " fill="#343C45" transform="translate(627.3378467559814,274.8769521713257)"/>
<path d="M0 0 C0.71671875 0.38929688 1.4334375 0.77859375 2.171875 1.1796875 C2.80609375 1.50710937 3.4403125 1.83453125 4.09375 2.171875 C10.1952107 5.87054808 15.0129582 12.8521716 16.84765625 19.703125 C18.11220287 29.36243295 17.09652512 37.78986652 11.921875 46.21484375 C8.05616207 51.211717 2.79462973 54.41887448 -2.828125 57.1796875 C-3.488125 57.1796875 -4.148125 57.1796875 -4.828125 57.1796875 C-4.58835937 58.13488281 -4.58835937 58.13488281 -4.34375 59.109375 C-2.5232337 69.94972206 -2.90246488 81.89668305 -6.828125 92.1796875 C-7.32119141 93.60087891 -7.32119141 93.60087891 -7.82421875 95.05078125 C-13.76042879 110.84644049 -24.46149083 123.87512548 -39.828125 131.1796875 C-40.5809375 131.54835938 -41.33375 131.91703125 -42.109375 132.296875 C-57.7425503 139.63161821 -76.7840079 139.25576848 -93.20703125 134.5390625 C-98.29279911 132.6298422 -102.95400595 130.20363437 -107.64453125 127.47265625 C-114.15120389 124.83006896 -120.35683669 127.90241851 -126.578125 130.2421875 C-134.44282752 133.1796875 -134.44282752 133.1796875 -137.828125 133.1796875 C-137.36655303 129.12961971 -136.86108186 125.13789738 -136.0390625 121.14453125 C-135.90242187 120.48001953 -135.76578125 119.81550781 -135.625 119.13085938 C-135.34263405 117.78308486 -135.0535116 116.43670903 -134.7578125 115.09179688 C-133.44288026 108.58667539 -133.84183635 103.33522736 -137.140625 97.5546875 C-144.82665458 82.51777498 -147.3255651 63.72662781 -142.203125 47.3046875 C-141.46948982 45.5706407 -140.67860423 43.85951605 -139.828125 42.1796875 C-139.39242187 41.25671875 -138.95671875 40.33375 -138.5078125 39.3828125 C-130.26335711 23.0741084 -116.95863672 10.8163428 -99.98828125 4.046875 C-82.70715304 -1.43835213 -64.84846387 0.45508693 -48.30883789 7.14697266 C-44.86605357 8.52374623 -42.59824112 9.1796875 -38.828125 9.1796875 C-37.11582252 7.55994191 -35.45649238 5.8837929 -33.828125 4.1796875 C-23.80128824 -3.93398271 -11.93693237 -5.65638952 0 0 Z " fill="#40A42D" transform="translate(1044.828125,192.8203125)"/>
<path d="M0 0 C12.33219122 9.52070721 17.36822899 21.98832721 20.609375 36.78125 C22.17195792 49.65693324 22.12284193 63.64803181 18 76 C17.47212891 77.65902344 17.47212891 77.65902344 16.93359375 79.3515625 C11.89289541 93.82485475 2.76511228 102.93911144 -10.77734375 109.73828125 C-18.54644398 112.78000171 -26.01968832 113.36050668 -34.3125 113.3125 C-35.32924805 113.30686035 -36.34599609 113.3012207 -37.39355469 113.29541016 C-52.45093625 113.05177101 -64.84319921 108.72624575 -75.9375 98.24609375 C-91.18769819 81.63839686 -91.85444024 60.79765153 -91.22216797 39.57324219 C-90.31540261 24.98926656 -83.17037216 12.0495631 -72.63671875 2.0703125 C-52.37251741 -13.84083818 -21.19483077 -14.69462166 0 0 Z " fill="#353E47" transform="translate(494,601)"/>
<path d="M0 0 C7.78847559 4.06198958 13.4220485 10.44375839 16.39575195 18.70385742 C18.47652796 25.85665083 18.99572407 32.46005271 18.9140625 39.88671875 C18.92566406 40.94568359 18.93726563 42.00464844 18.94921875 43.09570312 C18.90506346 55.03970991 15.69454833 65.26430847 7.7578125 74.3671875 C1.01931449 80.84332596 -6.76581769 83.48658791 -16.0234375 83.82421875 C-23.41739794 83.59508529 -29.34613549 81.40075342 -35.4609375 77.32421875 C-35.4609375 89.86421875 -35.4609375 102.40421875 -35.4609375 115.32421875 C-43.3809375 115.32421875 -51.3009375 115.32421875 -59.4609375 115.32421875 C-59.4609375 77.04421875 -59.4609375 38.76421875 -59.4609375 -0.67578125 C-52.5309375 -0.67578125 -45.6009375 -0.67578125 -38.4609375 -0.67578125 C-37.8009375 1.63421875 -37.1409375 3.94421875 -36.4609375 6.32421875 C-35.8009375 5.74671875 -35.1409375 5.16921875 -34.4609375 4.57421875 C-23.8977531 -3.34816955 -12.36938561 -5.07964683 0 0 Z " fill="#373F48" transform="translate(584.4609375,630.67578125)"/>
<path d="M0 0 C0.98474808 -0.0127597 1.96949615 -0.02551941 2.98408508 -0.03866577 C4.0517662 -0.04089142 5.11944733 -0.04311707 6.21948242 -0.04541016 C7.31459641 -0.05206696 8.40971039 -0.05872375 9.53800964 -0.06558228 C11.85898149 -0.07572298 14.17998258 -0.08039886 16.50097656 -0.08007812 C20.05021431 -0.08444224 23.5982 -0.12072346 27.1472168 -0.15869141 C29.40046775 -0.16456105 31.65372461 -0.16852945 33.90698242 -0.17041016 C34.96859085 -0.18478119 36.03019928 -0.19915222 37.12397766 -0.21395874 C44.52033098 -0.16818176 44.52033098 -0.16818176 48.37451172 2.21411133 C48.99753174 2.89932861 49.62055176 3.5845459 50.26245117 4.29052734 C50.77807617 4.84611328 51.29370117 5.40169922 51.82495117 5.97412109 C52.86680041 7.2452904 53.90238016 8.52160658 54.93408203 9.80102539 C57.25436753 12.43811877 57.25436753 12.43811877 60.46386719 14.62402344 C65.34850174 18.31459113 69.4520765 22.01799525 70.9677124 28.13858032 C71.95741549 36.2382456 71.53885033 44.34715002 71.19995117 52.47802734 C71.15181896 54.95513473 71.10945066 57.43236118 71.07299805 59.90966797 C70.98095889 64.40943882 70.88031248 68.90752664 70.69580078 73.40454102 C70.66103134 74.30242844 70.6262619 75.20031586 70.59043884 76.12541199 C70.26245117 78.29052734 70.26245117 78.29052734 68.26245117 80.29052734 C65.26403809 80.54449463 65.26403809 80.54449463 61.3659668 80.54931641 C60.30233162 80.55457336 60.30233162 80.55457336 59.21720886 80.55993652 C56.86760742 80.56875655 54.5183058 80.56290387 52.16870117 80.55615234 C50.53967226 80.55749892 48.91064374 80.55943939 47.28161621 80.56195068 C43.86519551 80.56490231 40.44887928 80.56060311 37.0324707 80.55126953 C32.64727716 80.53987493 28.26232841 80.5464342 23.87714386 80.55841446 C20.51261542 80.56563205 17.14814528 80.56334561 13.78361511 80.55815887 C12.16643749 80.5568221 10.54925463 80.55847108 8.93208313 80.56311798 C6.67422408 80.56818162 4.41676473 80.5604756 2.15893555 80.54931641 C0.87257202 80.54772522 -0.4137915 80.54613403 -1.73913574 80.54449463 C-4.73754883 80.29052734 -4.73754883 80.29052734 -6.73754883 78.29052734 C-6.93570067 75.86222674 -7.0103815 73.54798716 -6.99633789 71.11865234 C-6.99984253 70.38030151 -7.00334717 69.64195068 -7.00695801 68.88122559 C-7.01577932 66.43423127 -7.00992487 63.98752474 -7.00317383 61.54052734 C-7.00452037 59.84423771 -7.0064608 58.14794846 -7.00897217 56.45166016 C-7.01192397 52.89400565 -7.00762402 49.33645146 -6.99829102 45.77880859 C-6.98689642 41.21201594 -6.99345559 36.64545834 -7.00543594 32.07867432 C-7.01265305 28.5751772 -7.01036731 25.07173608 -7.00518036 21.5682373 C-7.00384345 19.88407361 -7.00549303 18.19990488 -7.01013947 16.51574707 C-7.0152023 14.1644946 -7.00749815 11.81362611 -6.99633789 9.46240234 C-7.00038635 8.76207886 -7.00443481 8.06175537 -7.00860596 7.34020996 C-6.95730791 1.52484305 -5.76969846 0.05063281 0 0 Z " fill="#FAFAFA" transform="translate(820.737548828125,327.70947265625)"/>
<path d="M0 0 C0 7.92 0 15.84 0 24 C-3.24336128 22.91887957 -6.48627106 21.83638049 -9.7265625 20.74609375 C-11.02603612 20.30987932 -12.32551536 19.8736816 -13.625 19.4375 C-14.27984375 19.21642578 -14.9346875 18.99535156 -15.609375 18.76757812 C-24.97709402 15.62920262 -37.48342341 13.32586893 -46.875 17.6875 C-50.04656952 20.03446145 -51.70327799 21.28273024 -53 25 C-52.90377029 30.38886366 -51.66359292 33.12776025 -48 37 C-45.09108224 38.67585648 -45.09108224 38.67585648 -41.75 39.9375 C-41.14373779 40.18564453 -40.53747559 40.43378906 -39.9128418 40.68945312 C-35.92788857 42.301504 -31.89589141 43.77963026 -27.85791016 45.25244141 C-14.80894051 50.02159216 -2.42513921 55.1106918 4.0859375 68.1796875 C6.89914799 76.85976431 5.91620042 88.3510889 2.3203125 96.63671875 C-3.1472427 106.42331904 -11.27959768 111.00017395 -21.6640625 114.421875 C-40.74041496 119.14311273 -59.98427544 115.75589671 -78 109 C-78 101.08 -78 93.16 -78 85 C-74.74388642 85.8140284 -71.85831326 86.83316383 -68.77416992 88.12060547 C-59.16625653 92.12161085 -51.20160271 94.14843421 -40.8125 94.3125 C-39.6527063 94.33932861 -39.6527063 94.33932861 -38.46948242 94.36669922 C-33.52294953 94.35922631 -30.37660654 93.51704686 -26 91 C-25.34 91 -24.68 91 -24 91 C-21.66233965 86.47078307 -21.15310051 81.99033249 -22 77 C-27.22936091 69.33027067 -37.43424788 66.79396056 -45.875 64.125 C-56.34818117 60.79833958 -68.7516152 55.94583265 -74.6875 46.125 C-75.08324219 45.48820313 -75.47898437 44.85140625 -75.88671875 44.1953125 C-80.04041119 36.00452249 -80.75505369 24.50315 -78.0625 15.625 C-72.8928351 4.88253119 -63.67252558 -0.78512577 -53 -5 C-35.84825776 -9.08944855 -16.21097419 -6.07911532 0 0 Z " fill="#42A32F" transform="translate(866,598)"/>
<path d="M0 0 C9.31298838 6.05418988 14.71548102 14.44978952 17.28393555 25.14941406 C17.94051894 28.66866925 17.9856743 32.11647788 17.9375 35.6875 C17.92928223 36.43281982 17.92106445 37.17813965 17.91259766 37.94604492 C17.67018785 49.93229741 14.79645399 61.15988455 6.4375 70.25 C-2.86179222 78.64803923 -14.03761407 80.71572851 -26.16796875 80.50390625 C-30.40498713 80.24600078 -34.25379982 79.52544488 -38.3125 78.3125 C-38.96476563 78.15265625 -39.61703125 77.9928125 -40.2890625 77.828125 C-48.91907159 75.28381953 -55.42332564 68.43467596 -59.8125 60.8125 C-63.86048261 53.18723043 -64.64523074 45.25058338 -64.5625 36.75 C-64.57023438 35.95142578 -64.57796875 35.15285156 -64.5859375 34.33007812 C-64.55000751 23.30855514 -61.23233346 13.16059408 -53.625 5 C-39.25460289 -8.42140862 -16.8169933 -9.29493455 0 0 Z " fill="#43A330" transform="translate(943.3125,633.6875)"/>
<path d="M0 0 C5.91764477 5.07226695 9.78780755 10.73842053 10.73788452 18.61547852 C10.87721562 21.40274472 10.93073796 24.17807791 10.94921875 26.96875 C10.96716995 27.97844849 10.98512115 28.98814697 11.00361633 30.02844238 C11.05744099 33.22725349 11.09152571 36.42591777 11.125 39.625 C11.15819763 41.80470781 11.19268953 43.98439631 11.22851562 46.1640625 C11.31315111 51.48424324 11.38161785 56.80444367 11.4375 62.125 C13.4175 62.785 15.3975 63.445 17.4375 64.125 C17.4375 68.745 17.4375 73.365 17.4375 78.125 C13.61255456 79.08123636 10.48716171 79.3243592 6.5625 79.375 C5.36882812 79.40078125 4.17515625 79.4265625 2.9453125 79.453125 C-2.8046331 78.91526817 -6.87007783 76.52750336 -10.5625 72.125 C-10.5625 71.465 -10.5625 70.805 -10.5625 70.125 C-11.31015625 70.60710937 -12.0578125 71.08921875 -12.828125 71.5859375 C-14.30539062 72.53339844 -14.30539062 72.53339844 -15.8125 73.5 C-16.78703125 74.12648438 -17.7615625 74.75296875 -18.765625 75.3984375 C-20.15007812 76.25308594 -20.15007812 76.25308594 -21.5625 77.125 C-22.47322266 77.72441406 -22.47322266 77.72441406 -23.40234375 78.3359375 C-26.82422099 79.58588181 -30.28079467 79.41227784 -33.875 79.375 C-34.97618164 79.38660156 -34.97618164 79.38660156 -36.09960938 79.3984375 C-44.1270561 79.36994612 -49.89062486 77.6645329 -55.76171875 72.08984375 C-61.51995587 65.80699501 -62.22612019 59.91089063 -61.9375 51.46875 C-61.1992199 44.88575248 -59.01262359 41.01791403 -53.875 36.875 C-43.96400975 30.10156719 -34.96612711 28.96371151 -23.1875 29.0625 C-21.65416016 29.06926758 -21.65416016 29.06926758 -20.08984375 29.07617188 C-17.58066806 29.087897 -15.0716151 29.10430824 -12.5625 29.125 C-12.6651006 27.52123025 -12.78416114 25.91850785 -12.91015625 24.31640625 C-12.97468994 23.42381104 -13.03922363 22.53121582 -13.10571289 21.61157227 C-13.78140478 17.93336706 -15.64973495 16.32733455 -18.5625 14.125 C-25.49730147 10.65759927 -36.92400721 12.60441363 -44.02075195 14.91552734 C-45.91762469 15.5954721 -47.80105501 16.31257137 -49.68359375 17.03125 C-52.5625 18.125 -52.5625 18.125 -54.5625 18.125 C-54.5625 12.185 -54.5625 6.245 -54.5625 0.125 C-38.51977411 -6.29209036 -15.22490156 -10.93937371 0 0 Z " fill="#43A330" transform="translate(1085.5625,633.875)"/>
<path d="M0 0 C11.15451812 11.57873917 10.74609375 25.30198304 10.74609375 40.8125 C-6.41390625 40.8125 -23.57390625 40.8125 -41.25390625 40.8125 C-38.32949051 51.41182645 -38.32949051 51.41182645 -30.5859375 57.41015625 C-26.72832103 59.03370175 -23.37379908 59.34638921 -19.25390625 59.3125 C-18.14873657 59.3115332 -18.14873657 59.3115332 -17.02124023 59.31054688 C-10.41408317 59.13441284 -4.98205655 57.41426132 1.0859375 54.90625 C3.74609375 53.8125 3.74609375 53.8125 5.74609375 53.8125 C5.74609375 59.7525 5.74609375 65.6925 5.74609375 71.8125 C-7.38302939 78.37706157 -24.51326165 80.51216844 -38.75390625 76.1875 C-48.82427221 72.25591877 -56.81156306 66.32064042 -61.50390625 56.4375 C-66.54941502 43.84475102 -67.68252376 28.34870854 -62.64453125 15.55859375 C-57.43197663 5.26526257 -50.324107 -2.99698428 -39.171875 -6.6640625 C-25.90568918 -10.28456942 -10.85354139 -9.02581404 0 0 Z " fill="#363E47" transform="translate(675.25390625,636.1875)"/>
<path d="M0 0 C5.85692242 6.37370969 8.25558931 13.01784584 8.23852539 21.54980469 C8.23841209 23.44131256 8.23841209 23.44131256 8.23829651 25.37103271 C8.23319028 26.74214721 8.2279743 28.11326131 8.22265625 29.484375 C8.22079028 30.89113311 8.21936722 32.29789188 8.21836853 33.70465088 C8.21455744 37.40030727 8.2047392 41.09592413 8.19366455 44.79156494 C8.18342014 48.56546494 8.17886442 52.33937135 8.17382812 56.11328125 C8.16311563 63.51304091 8.14553027 70.91275987 8.125 78.3125 C0.535 78.3125 -7.055 78.3125 -14.875 78.3125 C-14.92398438 74.6515625 -14.97296875 70.990625 -15.0234375 67.21875 C-15.07750865 63.65751193 -15.13479211 60.09633894 -15.19238281 56.53515625 C-15.23057182 54.06775802 -15.26544196 51.60030604 -15.296875 49.1328125 C-15.34274445 45.57793009 -15.40070328 42.02341455 -15.4609375 38.46875 C-15.47248871 37.37260376 -15.48403992 36.27645752 -15.49594116 35.14709473 C-15.48653301 25.21861891 -15.48653301 25.21861891 -19.375 16.375 C-23.30999595 13.5877112 -27.20535389 13.88798672 -31.875 14.3125 C-36.38876299 15.45872703 -40.44383163 17.10538445 -43.875 20.3125 C-44.49282669 22.94615579 -44.49282669 22.94615579 -44.42089844 25.97729492 C-44.45047638 27.71876045 -44.45047638 27.71876045 -44.48065186 29.4954071 C-44.48249481 31.37520012 -44.48249481 31.37520012 -44.484375 33.29296875 C-44.50091125 34.57609451 -44.51744751 35.85922028 -44.53448486 37.18122864 C-44.57818228 40.58919142 -44.59816222 43.99689671 -44.61322021 47.40509033 C-44.63278313 50.88414756 -44.67475386 54.36292635 -44.71484375 57.84179688 C-44.79017131 64.6652873 -44.83837567 71.48869321 -44.875 78.3125 C-52.465 78.3125 -60.055 78.3125 -67.875 78.3125 C-67.875 51.2525 -67.875 24.1925 -67.875 -3.6875 C-60.945 -3.6875 -54.015 -3.6875 -46.875 -3.6875 C-46.215 -1.0475 -45.555 1.5925 -44.875 4.3125 C-44.2459375 3.84199219 -43.616875 3.37148438 -42.96875 2.88671875 C-29.06721121 -7.22539456 -15.40222542 -9.04043666 0 0 Z " fill="#333C45" transform="translate(763.875,633.6875)"/>
<path d="M0 0 C6.6880484 6.13704441 10.22424428 16.75371696 10.96875 25.59887695 C11.43714271 36.75735753 11.84727962 47.78861806 6.75 58 C6.41097656 58.75152344 6.07195312 59.50304687 5.72265625 60.27734375 C2.28512461 66.8465768 -3.60017366 70.23831716 -10.39453125 72.8125 C-19.2268231 75.32107993 -26.29059603 74.28291737 -34.25 70 C-40.17364466 65.97965698 -43.5976421 61.59581064 -46.25 55 C-46.641875 54.175 -47.03375 53.35 -47.4375 52.5 C-52.03696817 38.34779023 -50.36154833 20.55854203 -44 7.41796875 C-40.20498263 0.91684525 -34.46261791 -3.30068656 -27.296875 -5.63671875 C-16.98650843 -7.46661205 -8.7763583 -5.40083588 0 0 Z " fill="#FBFBFC" transform="translate(478.25,619)"/>
<path d="M0 0 C1.24869873 -0.00427002 2.49739746 -0.00854004 3.78393555 -0.01293945 C5.1619554 -0.00478842 6.53996753 0.00477112 7.91796875 0.015625 C8.61266266 0.01905914 9.30735657 0.02249329 10.02310181 0.02603149 C21.29598125 0.09069183 32.56800928 0.35971551 43.83041382 0.8494873 C45.46619499 0.91832987 47.10231771 0.97950375 48.73867798 1.03283691 C51.04371221 1.11131568 53.34516231 1.22124809 55.6484375 1.33984375 C56.67147476 1.36678566 56.67147476 1.36678566 57.71517944 1.39427185 C61.43290527 1.62520344 63.08278619 2.24744287 66.02172852 4.60327148 C68.74864607 8.08739989 68.99058708 10.99585613 69.10546875 15.265625 C69.14220703 16.21856445 69.17894531 17.17150391 69.21679688 18.15332031 C69.31137467 21.40015595 69.34021934 24.64250106 69.35546875 27.890625 C69.37609375 28.99664062 69.39671875 30.10265625 69.41796875 31.2421875 C69.46746227 41.53683972 69.46746227 41.53683972 66.10546875 46.265625 C63.07310575 48.28720033 62.39535923 48.52147839 58.97631836 48.609375 C58.14792953 48.63700928 57.31954071 48.66464355 56.46604919 48.69311523 C55.57233109 48.71704346 54.67861298 48.74097168 53.7578125 48.765625 C51.85341357 48.84793218 49.94911745 48.93264643 48.04492188 49.01953125 C45.05197768 49.14913828 42.06151376 49.2651656 39.06665039 49.33935547 C25.30136339 49.34188964 25.30136339 49.34188964 14.0234375 56.1640625 C12.7053729 57.85524126 11.3983848 59.5551432 10.10546875 61.265625 C7.53158263 63.44074757 4.8639775 65.32445217 2.10546875 67.265625 C2.10546875 61.655625 2.10546875 56.045625 2.10546875 50.265625 C-1.85453125 49.770625 -1.85453125 49.770625 -5.89453125 49.265625 C-8.36572266 47.67260742 -8.36572266 47.67260742 -9.89453125 45.265625 C-10.26943893 42.61696815 -10.41009353 40.39497797 -10.35546875 37.75390625 C-10.35455231 37.02624557 -10.35363586 36.2985849 -10.35269165 35.5488739 C-10.34665922 34.00981116 -10.33092362 32.47075997 -10.30615234 30.93188477 C-10.26992179 28.60322609 -10.26513143 26.27617528 -10.265625 23.94726562 C-10.15316653 0.02092358 -10.15316653 0.02092358 0 0 Z " fill="#4AAE2C" transform="translate(571.89453125,317.734375)"/>
<path d="M0 0 C6.14058691 -0.16285488 11.64651069 0.75368905 17.62890625 2.12109375 C17.62890625 7.73109375 17.62890625 13.34109375 17.62890625 19.12109375 C9.94140625 18.93359375 9.94140625 18.93359375 7.5480957 18.85083008 C1.86590308 18.78401456 -1.10993796 19.94479369 -5.140625 23.82421875 C-6.88299426 27.07664136 -6.93832542 30.26382238 -7.05859375 33.87109375 C-7.16171875 36.26359375 -7.26484375 38.65609375 -7.37109375 41.12109375 C-0.77109375 41.12109375 5.82890625 41.12109375 12.62890625 41.12109375 C12.62890625 47.06109375 12.62890625 53.00109375 12.62890625 59.12109375 C6.02890625 59.12109375 -0.57109375 59.12109375 -7.37109375 59.12109375 C-7.37109375 80.24109375 -7.37109375 101.36109375 -7.37109375 123.12109375 C-15.29109375 123.12109375 -23.21109375 123.12109375 -31.37109375 123.12109375 C-31.37109375 102.00109375 -31.37109375 80.88109375 -31.37109375 59.12109375 C-35.33109375 59.12109375 -39.29109375 59.12109375 -43.37109375 59.12109375 C-43.37109375 53.18109375 -43.37109375 47.24109375 -43.37109375 41.12109375 C-39.41109375 41.12109375 -35.45109375 41.12109375 -31.37109375 41.12109375 C-31.42330078 39.43693359 -31.42330078 39.43693359 -31.4765625 37.71875 C-31.72697914 26.56711154 -31.63973405 18.71193024 -24.24609375 9.80859375 C-17.13667805 2.3880691 -9.92887636 0.50707606 0 0 Z " fill="#46A432" transform="translate(1008.37109375,588.87890625)"/>
<path d="M0 0 C1.07507812 0.58394531 1.07507812 0.58394531 2.171875 1.1796875 C2.80609375 1.50710937 3.4403125 1.83453125 4.09375 2.171875 C10.1952107 5.87054808 15.0129582 12.8521716 16.84765625 19.703125 C18.11220287 29.36243295 17.09652512 37.78986652 11.921875 46.21484375 C7.53021662 51.89156126 1.13375853 55.97389686 -5.703125 58.0546875 C-6.734375 58.0959375 -7.765625 58.1371875 -8.828125 58.1796875 C-9.735625 58.22867188 -10.643125 58.27765625 -11.578125 58.328125 C-20.97547172 58.63353877 -27.51472198 56.89711414 -34.93359375 51.05859375 C-42.54337252 43.51157604 -44.26141841 35.18961003 -44.34716797 24.89306641 C-44.15680103 17.35997455 -41.8103785 11.90397876 -36.828125 6.1796875 C-26.17411531 -3.2170167 -13.26689621 -6.28660115 0 0 Z " fill="#333B44" transform="translate(1044.828125,192.8203125)"/>
<path d="M0 0 C5.52739924 4.11011738 11.20318027 11.78456657 12.484375 18.5625 C11.6279195 22.8724051 8.07273789 24.95081412 4.87109375 27.71875 C2.74582153 29.82391557 2.74582153 29.82391557 2.9765625 32.44921875 C7.26854258 43.14640574 18.81743852 52.75424643 29.1875 57.4375 C32.19640967 58.37129955 34.08690712 58.12551316 37 57 C39.26877535 54.58119071 39.26877535 54.58119071 41 52 C43.84659476 50.57670262 45.83800947 50.71603483 49 51 C53.00519972 53.21636052 56.45426495 56.11515639 60 59 C60.68578125 59.52335937 61.3715625 60.04671875 62.078125 60.5859375 C64.27480761 62.44387934 65.86829808 64.04986469 66.2734375 66.97265625 C65.93997758 71.66742095 64.452091 74.729598 61 78 C54.67542734 82.35365932 48.65960989 83.94341236 41 83 C26.13437781 79.09428693 12.8053505 69.65369646 2 59 C1.24460937 58.31679688 0.48921875 57.63359375 -0.2890625 56.9296875 C-11.24324577 46.72836906 -19.38835113 33.43183822 -20.625 18.25 C-20.29983219 11.71051408 -15.91197837 6.77858453 -11.3125 2.5 C-7.53771279 0.05148938 -4.437386 -0.53248632 0 0 Z " fill="#FAFCFA" transform="translate(949,221)"/>
<path d="M0 0 C4.63923293 3.37507177 6.74210895 8.83539007 7.95703125 14.23046875 C8.8852445 24.43038519 9.1129266 35.87155106 2.58203125 44.29296875 C-2.72877441 48.21284912 -7.53842893 49.10071593 -14.04296875 48.23046875 C-17.69026106 47.10273453 -20.15417578 45.52448648 -22.328125 42.359375 C-27.12597119 33.26238349 -27.47162748 21.53133507 -25.51171875 11.515625 C-23.90588325 6.96866687 -21.43213243 2.75672907 -17.3125 0.125 C-12.15808957 -1.90660067 -5.19157842 -1.95552763 0 0 Z " fill="#FBFCFA" transform="translate(929.04296875,647.76953125)"/>
<path d="M0 0 C5.21978215 5.35027671 6.99235029 11.66344366 6.99804688 19.0234375 C6.97806641 19.86132812 6.95808594 20.69921875 6.9375 21.5625 C6.94458984 22.40039062 6.95167969 23.23828125 6.95898438 24.1015625 C6.88464222 31.49002884 5.7558681 38.56475843 0.5 44.0625 C-3.96989173 47.43849417 -9.00797885 48.25429701 -14.5 47.5625 C-17.577862 46.38263164 -20.54278548 45.01623959 -23.5 43.5625 C-23.69806477 37.95764781 -23.84306251 32.35483864 -23.93945312 26.74731445 C-23.97963662 24.84102903 -24.03419687 22.93498945 -24.10351562 21.02954102 C-24.20080921 18.28600509 -24.24597204 15.54572978 -24.28125 12.80078125 C-24.32254028 11.95163651 -24.36383057 11.10249176 -24.40637207 10.22761536 C-24.40823271 7.76280713 -24.31890395 5.89029218 -23.5 3.5625 C-16.93768924 -2.76923491 -8.22260025 -3.37713939 0 0 Z " fill="#FBFBFC" transform="translate(572.5,648.4375)"/>
<path d="M0 0 C4.455 2.97 4.455 2.97 9 6 C8.34 6.66 7.68 7.32 7 8 C6.31550781 8.69222656 6.31550781 8.69222656 5.6171875 9.3984375 C4.47597249 10.52862627 3.31206632 11.63612278 2.1328125 12.7265625 C-10.36447472 24.54306364 -17.73862512 41.27677987 -21 58 C-21.19207031 58.88042969 -21.38414062 59.76085937 -21.58203125 60.66796875 C-23.53934967 70.65170082 -23.64942116 80.8588658 -24 91 C-24.33 91 -24.66 91 -25 91 C-25.495 83.575 -25.495 83.575 -26 76 C-28.6915625 75.0409375 -28.6915625 75.0409375 -31.4375 74.0625 C-36.875 72.125 -36.875 72.125 -38 71 C-40.24288415 51.59042567 -30.64516732 31.31297956 -18.98046875 16.421875 C-13.38173197 9.84462026 -7.0383348 4.93040712 0 0 Z " fill="#9CDC7C" transform="translate(1027,353)"/>
<path d="M0 0 C3.62596856 1.86405426 6.27452905 4.31471032 9.2109375 7.11328125 C9.78787354 7.65710449 10.36480957 8.20092773 10.95922852 8.76123047 C28.17872614 25.14748719 37.0519943 46.69029988 37.7734375 70.42578125 C35.8163507 71.09609844 33.85772637 71.76192808 31.8984375 72.42578125 C30.80789063 72.79703125 29.71734375 73.16828125 28.59375 73.55078125 C25.7734375 74.42578125 25.7734375 74.42578125 23.7734375 74.42578125 C23.7734375 76.73578125 23.7734375 79.04578125 23.7734375 81.42578125 C23.4434375 81.42578125 23.1134375 81.42578125 22.7734375 81.42578125 C22.73379883 80.87341797 22.69416016 80.32105469 22.65332031 79.75195312 C20.72023953 53.97042267 15.19388936 29.07222959 -4.2265625 10.42578125 C-6.18592574 8.87595705 -8.046328 7.65565712 -10.2265625 6.42578125 C-3.22045962 -0.83053959 -3.22045962 -0.83053959 0 0 Z " fill="#9BDB7A" transform="translate(510.2265625,353.57421875)"/>
<path d="M0 0 C12.87 0 25.74 0 39 0 C39.0825 3.3825 39.165 6.765 39.25 10.25 C39.28641602 11.30993164 39.32283203 12.36986328 39.36035156 13.46191406 C39.3703418 14.30463867 39.38033203 15.14736328 39.390625 16.015625 C39.41157227 16.87446289 39.43251953 17.73330078 39.45410156 18.61816406 C38.81596185 21.9653098 37.78179629 23.04757981 35 25 C32.34278253 25.37401774 30.11024449 25.51572586 27.4609375 25.4609375 C26.73887115 25.46002106 26.01680481 25.45910461 25.27285767 25.4581604 C23.75149941 25.45213379 22.23015251 25.43641575 20.70898438 25.41162109 C18.37585983 25.37501349 16.04431981 25.37060251 13.7109375 25.37109375 C12.23175706 25.36126577 10.7525874 25.34961016 9.2734375 25.3359375 C8.57447357 25.33371185 7.87550964 25.33148621 7.15536499 25.32919312 C2.23219502 25.23219502 2.23219502 25.23219502 0 23 C-0.22705078 20.66162109 -0.22705078 20.66162109 -0.1953125 17.7734375 C-0.19031738 16.84450684 -0.18532227 15.91557617 -0.18017578 14.95849609 C-0.16196777 13.77594238 -0.14375977 12.59338867 -0.125 11.375 C-0.08375 7.62125 -0.0425 3.8675 0 0 Z " fill="#204C42" transform="translate(515,518)"/>
<path d="M0 0 C12.54 0 25.08 0 38 0 C38 7.92 38 15.84 38 24 C33.50650112 26.24674944 27.3945142 25.26856602 22.39697266 25.29516602 C20.14033309 25.31238302 17.88515763 25.35627122 15.62890625 25.40039062 C14.1927191 25.4105176 12.7565195 25.41903369 11.3203125 25.42578125 C10.01336426 25.44036377 8.70641602 25.45494629 7.35986328 25.4699707 C4 25 4 25 1.56689453 23.28491211 C-0.27998373 20.59171584 -0.4695618 19.25203397 -0.390625 16.015625 C-0.38063477 15.17290039 -0.37064453 14.33017578 -0.36035156 13.46191406 C-0.32393555 12.40198242 -0.28751953 11.34205078 -0.25 10.25 C-0.1675 6.8675 -0.085 3.485 0 0 Z " fill="#224842" transform="translate(983,518)"/>
<path d="M0 0 C3.52490341 1.22334883 5.45352547 3.10280168 8.15625 5.671875 C8.91869019 6.39201782 8.91869019 6.39201782 9.6965332 7.12670898 C11.36323838 8.71174028 13.01164665 10.31393328 14.65625 11.921875 C15.25228027 12.50275879 15.84831055 13.08364258 16.46240234 13.68212891 C18.26272089 15.44306999 20.05556141 17.21112117 21.84375 18.984375 C22.40835938 19.54415039 22.97296875 20.10392578 23.5546875 20.68066406 C28.46197233 25.60915321 28.46197233 25.60915321 29.06103516 29.65698242 C28.51198194 34.08550393 26.24980322 36.17536369 23.1796875 39.16015625 C22.61682037 39.72639206 22.05395325 40.29262787 21.47402954 40.87602234 C20.28243307 42.0673204 19.08336278 43.25118335 17.87744141 44.42797852 C16.03895294 46.2268381 14.23156523 48.05314255 12.42578125 49.88476562 C11.26216316 51.04082307 10.09685193 52.19517931 8.9296875 53.34765625 C8.12306168 54.16475822 8.12306168 54.16475822 7.30014038 54.99836731 C3.89418858 58.27996688 1.42554893 59.77959077 -3.34375 59.921875 C-5.21875 58.796875 -5.21875 58.796875 -6.34375 56.921875 C-6.66044235 54.00446667 -6.67071742 52.44297932 -5.09375 49.9296875 C-1.3439332 45.89528639 2.52075348 42.16067322 6.72265625 38.59765625 C9.51610815 36.1766646 12.07563424 33.56700616 14.65625 30.921875 C13.18519843 27.46117533 11.27018402 25.38333698 8.5234375 22.83984375 C7.71777344 22.07220703 6.91210938 21.30457031 6.08203125 20.51367188 C4.3831925 18.91239278 2.67481703 17.32117076 0.95703125 15.74023438 C-5.90196603 9.15097294 -5.90196603 9.15097294 -6.0859375 4.97265625 C-5.17297939 1.2199179 -3.9983366 -0.13327789 0 0 Z " fill="#F6F6F7" transform="translate(688.34375,309.078125)"/>
<path d="M0 0 C0.8510582 -0.00953201 1.70211639 -0.01906403 2.57896423 -0.02888489 C3.9602224 -0.02751778 3.9602224 -0.02751778 5.36938477 -0.02612305 C6.31386978 -0.03040817 7.2583548 -0.0346933 8.23146057 -0.03910828 C10.23128456 -0.04485766 12.23112947 -0.04534738 14.23095703 -0.04101562 C17.29504005 -0.03785803 20.35815577 -0.06129905 23.42211914 -0.08666992 C25.36287313 -0.08894304 27.30362972 -0.08964635 29.24438477 -0.08862305 C30.62260658 -0.10243767 30.62260658 -0.10243767 32.02867126 -0.11653137 C32.88288162 -0.11030258 33.73709198 -0.10407379 34.6171875 -0.09765625 C35.36838364 -0.09828568 36.11957977 -0.0989151 36.89353943 -0.0995636 C39.42871854 0.37964768 40.34379902 1.22634224 41.87329102 3.2746582 C41.62875978 6.61658513 41.26785544 7.88009378 38.87329102 10.2746582 C37.05848694 10.53535461 37.05848694 10.53535461 34.83837891 10.54931641 C34.00734146 10.55884842 33.17630402 10.56838043 32.32008362 10.57820129 C31.42111862 10.57728989 30.52215363 10.57637848 29.59594727 10.57543945 C28.67365829 10.57972458 27.75136932 10.5840097 26.8011322 10.58842468 C24.84838686 10.59417379 22.8956201 10.59466399 20.94287109 10.59033203 C17.95120767 10.58717447 14.96053502 10.6106155 11.96899414 10.63598633 C10.0738131 10.63825946 8.17862939 10.63896275 6.28344727 10.63793945 C5.3865065 10.6471492 4.48956573 10.65635895 3.56544495 10.66584778 C2.73125534 10.65961899 1.89706573 10.6533902 1.03759766 10.64697266 C0.30416641 10.64760208 -0.42926483 10.64823151 -1.18492126 10.64888 C-3.69331789 10.1654612 -4.58526548 9.27834611 -6.12670898 7.2746582 C-6.43920898 4.7121582 -6.43920898 4.7121582 -6.12670898 2.2746582 C-3.74403542 -0.10801536 -3.24157469 0.01990297 0 0 Z " fill="#F9FAFA" transform="translate(730.126708984375,355.725341796875)"/>
<path d="M0 0 C0.58999969 5.15266397 0.85867699 9.86403828 0 15 C-3.36200834 19.18149787 -7.54439616 20.56541112 -12.71484375 21.48046875 C-16.99802938 21.71878133 -19.36222906 21.39047201 -23.0625 19.125 C-25.5703929 16.37440779 -25.95767187 15.44867818 -26.3125 11.6875 C-25.9475203 7.38073959 -25.06016472 5.97516014 -22 3 C-15.66597749 -1.22268167 -7.26340498 -0.10577774 0 0 Z " fill="#F8FBF8" transform="translate(1073,676)"/>
<path d="M0 0 C4.5108365 2.25541825 5.71953804 3.43907608 8 8 C8 11.3 8 14.6 8 18 C-1.57 18 -11.14 18 -21 18 C-19.98064466 9.84515731 -19.24189381 6.93314202 -13.375 1.625 C-8.80427894 -0.57571755 -4.9875748 -0.80967123 0 0 Z " fill="#F9F9FA" transform="translate(655,645)"/>
<path d="M0 0 C0 11.55 0 23.1 0 35 C-2.64 35 -5.28 35 -8 35 C-8 26.42 -8 17.84 -8 9 C-10.31 9.66 -12.62 10.32 -15 11 C-15.4375 8.3125 -15.4375 8.3125 -15 5 C-10.49766527 -0.32845119 -7.1857404 0 0 0 Z " fill="#F4F4F5" transform="translate(1037,202)"/>
<path d="M0 0 C6.24795675 -0.02527124 12.49590041 -0.04283344 18.74389648 -0.05493164 C20.87118014 -0.05997298 22.99846031 -0.06680591 25.12573242 -0.07543945 C28.17627826 -0.08751379 31.22677845 -0.09323014 34.27734375 -0.09765625 C35.71327126 -0.10539818 35.71327126 -0.10539818 37.1782074 -0.11329651 C38.49946373 -0.11340981 38.49946373 -0.11340981 39.84741211 -0.11352539 C40.62684677 -0.115746 41.40628143 -0.11796661 42.20933533 -0.12025452 C44 0 44 0 45 1 C45.125 3.5 45.125 3.5 45 6 C43.4726789 7.5273211 42.09995977 7.13452391 39.97094727 7.14526367 C39.11658585 7.15164352 38.26222443 7.15802338 37.38197327 7.16459656 C36.45283615 7.16570938 35.52369904 7.1668222 34.56640625 7.16796875 C33.61813461 7.17129715 32.66986298 7.17462555 31.69285583 7.17805481 C29.68285611 7.18312819 27.67284792 7.18546301 25.6628418 7.18530273 C22.57912381 7.18748822 19.49576394 7.20563683 16.41210938 7.22460938 C14.4635429 7.22754334 12.51497471 7.22952812 10.56640625 7.23046875 C9.17573692 7.24124702 9.17573692 7.24124702 7.75697327 7.25224304 C6.89945969 7.24916641 6.04194611 7.24608978 5.15844727 7.24291992 C4.40201431 7.24434494 3.64558136 7.24576996 2.8662262 7.24723816 C1 7 1 7 -1 5 C-0.625 2.375 -0.625 2.375 0 0 Z " fill="#373F4A" transform="translate(830,385)"/>
<path d="M0 0 C0.85758911 -0.00315216 1.71517822 -0.00630432 2.59875488 -0.009552 C3.53102905 -0.00752777 4.46330322 -0.00550354 5.42382812 -0.00341797 C6.84979309 -0.00485306 6.84979309 -0.00485306 8.30456543 -0.00631714 C10.31876695 -0.00699904 12.33297065 -0.00514409 14.34716797 -0.00097656 C17.44178167 0.00437155 20.53625022 -0.00092124 23.63085938 -0.00732422 C25.58268261 -0.00666344 27.53450576 -0.00538228 29.48632812 -0.00341797 C30.88473938 -0.00645432 30.88473938 -0.00645432 32.31140137 -0.009552 C33.16899048 -0.00639984 34.02657959 -0.00324768 34.91015625 0 C35.66880981 0.00079559 36.42746338 0.00159119 37.20910645 0.00241089 C38.95507812 0.12939453 38.95507812 0.12939453 39.95507812 1.12939453 C40.08007812 3.62939453 40.08007812 3.62939453 39.95507812 6.12939453 C38.42423388 7.66023878 37.04304669 7.25655232 34.91015625 7.25878906 C34.05256714 7.26194122 33.19497803 7.26509338 32.31140137 7.26834106 C31.3791272 7.26631683 30.44685303 7.2642926 29.48632812 7.26220703 C28.06036316 7.26364212 28.06036316 7.26364212 26.60559082 7.2651062 C24.5913893 7.2657881 22.5771856 7.26393315 20.56298828 7.25976562 C17.46837458 7.25441751 14.37390603 7.2597103 11.27929688 7.26611328 C9.32747364 7.2654525 7.37565049 7.26417134 5.42382812 7.26220703 C4.02541687 7.26524338 4.02541687 7.26524338 2.59875488 7.26834106 C1.74116577 7.2651889 0.88357666 7.26203674 0 7.25878906 C-0.75865356 7.25799347 -1.51730713 7.25719788 -2.2989502 7.25637817 C-4.04492188 7.12939453 -4.04492188 7.12939453 -5.04492188 6.12939453 C-5.16992188 3.62939453 -5.16992188 3.62939453 -5.04492188 1.12939453 C-3.51407763 -0.40144971 -2.13289044 0.00223674 0 0 Z " fill="#353C47" transform="translate(835.044921875,365.87060546875)"/>
<path d="M0 0 C1.1653125 -0.00128906 2.330625 -0.00257813 3.53125 -0.00390625 C4.7584375 -0.00003906 5.985625 0.00382812 7.25 0.0078125 C9.09078125 0.00201172 9.09078125 0.00201172 10.96875 -0.00390625 C12.71671875 -0.00197266 12.71671875 -0.00197266 14.5 0 C15.57765625 0.00112793 16.6553125 0.00225586 17.765625 0.00341797 C20.25 0.1328125 20.25 0.1328125 21.25 1.1328125 C21.375 4.1328125 21.375 4.1328125 21.25 7.1328125 C18.60459403 9.77821847 10.87595815 8.31843403 7.3125 8.3203125 C6.09369141 8.33255859 4.87488281 8.34480469 3.61914062 8.35742188 C1.87600586 8.36032227 1.87600586 8.36032227 0.09765625 8.36328125 C-1.5109729 8.36944458 -1.5109729 8.36944458 -3.15209961 8.37573242 C-5.75 8.1328125 -5.75 8.1328125 -7.75 6.1328125 C-7.00629024 0.03439251 -5.90738941 0.00618297 0 0 Z " fill="#444C56" transform="translate(836.75,346.8671875)"/>
<path d="M0 0 C0 3 0 3 -1.72265625 4.7265625 C-2.49480469 5.35304687 -3.26695312 5.97953125 -4.0625 6.625 C-8.76099807 10.62467082 -12.40477574 15.00599074 -16 20 C-16.66 19.67 -17.32 19.34 -18 19 C-12.90264366 11.74012885 -7.22215989 5.21600437 0 0 Z " fill="#4EB131" transform="translate(565,241)"/>
<path d="M0 0 C0 3 0 3 -2.40625 5.69921875 C-3.4299968 6.70302243 -4.4616054 7.69885649 -5.5 8.6875 C-6.02464844 9.19861328 -6.54929687 9.70972656 -7.08984375 10.23632812 C-8.38660904 11.49772708 -9.69246117 12.74977212 -11 14 C-11.66 13.67 -12.32 13.34 -13 13 C-11.39979779 11.20465118 -9.79509897 9.41370539 -8.1875 7.625 C-7.73568359 7.11710937 -7.28386719 6.60921875 -6.81835938 6.0859375 C-4.64829248 3.67827204 -2.71407209 1.80938139 0 0 Z " fill="#42A835" transform="translate(476,345)"/>
<path d="M0 0 C0.66 0.33 1.32 0.66 2 1 C-1.96 4.96 -5.92 8.92 -10 13 C-10.66 12.67 -11.32 12.34 -12 12 C-10.56665422 10.37133456 -9.12817021 8.74719006 -7.6875 7.125 C-6.88699219 6.22007812 -6.08648438 5.31515625 -5.26171875 4.3828125 C-3 2 -3 2 0 0 Z " fill="#94D873" transform="translate(1018,360)"/>
<path d="M0 0 C0 0.99 0 1.98 0 3 C-0.66 2.67 -1.32 2.34 -2 2 C-1.34 1.34 -0.68 0.68 0 0 Z M-4 4 C-3.67 4.66 -3.34 5.32 -3 6 C-3.99 7.32 -4.98 8.64 -6 10 C-6.66 9.67 -7.32 9.34 -8 9 C-6.68 7.35 -5.36 5.7 -4 4 Z " fill="#4DAC3C" transform="translate(799,600)"/>
</svg>
